<svg xmlns="http://www.w3.org/2000/svg" xmlns:xlink="http://www.w3.org/1999/xlink" width="473" height="335" viewBox="0 0 473 335">
    <defs>
        <path id="b" d="M455.558 321H3.442A3.44 3.44 0 0 1 0 317.56V3.44A3.44 3.44 0 0 1 3.442 0h452.115A3.44 3.44 0 0 1 459 3.44v314.12a3.44 3.44 0 0 1-3.442 3.44"/>
        <filter id="a" width="104.6%" height="106.5%" x="-2.3%" y="-3.3%" filterUnits="objectBoundingBox">
            <feOffset in="SourceAlpha" result="shadowOffsetOuter1"/>
            <feGaussianBlur in="shadowOffsetOuter1" result="shadowBlurOuter1" stdDeviation="3.5"/>
            <feColorMatrix in="shadowBlurOuter1" values="0 0 0 0 0 0 0 0 0 0 0 0 0 0 0 0 0 0 0.3 0"/>
        </filter>
        <path id="d" d="M23.749 84.77h413.1V61.84h-413.1z"/>
        <filter id="c" width="101.5%" height="126.2%" x="-.7%" y="-13.1%" filterUnits="objectBoundingBox">
            <feOffset in="SourceAlpha" result="shadowOffsetOuter1"/>
            <feGaussianBlur in="shadowOffsetOuter1" result="shadowBlurOuter1" stdDeviation="1"/>
            <feColorMatrix in="shadowBlurOuter1" values="0 0 0 0 0 0 0 0 0 0 0 0 0 0 0 0 0 0 0.3 0"/>
        </filter>
        <path id="f" d="M0 239.604h413.1V136.425H0z"/>
        <filter id="e" width="101.5%" height="105.8%" x="-.7%" y="-2.9%" filterUnits="objectBoundingBox">
            <feOffset in="SourceAlpha" result="shadowOffsetOuter1"/>
            <feGaussianBlur in="shadowOffsetOuter1" result="shadowBlurOuter1" stdDeviation="1"/>
            <feColorMatrix in="shadowBlurOuter1" values="0 0 0 0 0 0 0 0 0 0 0 0 0 0 0 0 0 0 0.3 0"/>
        </filter>
        <path id="h" d="M0 127.252h413.1V24.074H0z"/>
        <filter id="g" width="101.5%" height="105.8%" x="-.7%" y="-2.9%" filterUnits="objectBoundingBox">
            <feOffset in="SourceAlpha" result="shadowOffsetOuter1"/>
            <feGaussianBlur in="shadowOffsetOuter1" result="shadowBlurOuter1" stdDeviation="1"/>
            <feColorMatrix in="shadowBlurOuter1" values="0 0 0 0 0 0 0 0 0 0 0 0 0 0 0 0 0 0 0.3 0"/>
        </filter>
    </defs>
    <g fill="none" fill-rule="evenodd">
        <g transform="translate(7 7)">
            <use fill="#000" filter="url(#a)" xlink:href="#b"/>
            <use fill="#F5F5F8" xlink:href="#b"/>
        </g>
        <path fill="#55555A" d="M466 29.929H7v-19.49A3.44 3.44 0 0 1 10.442 7h452.115A3.44 3.44 0 0 1 466 10.44v19.489z"/>
        <path fill="#AAAAAF" d="M454.566 16.364c.502 0 .913-.41.913-.913a.916.916 0 0 0-.913-.913.916.916 0 0 0-.914.913c0 .503.411.913.914.913m0 .913a.916.916 0 0 0-.914.913c0 .502.411.913.914.913.502 0 .913-.41.913-.913a.916.916 0 0 0-.913-.913m0 2.74a.915.915 0 0 0-.914.912c0 .502.411.913.914.913.502 0 .913-.41.913-.913a.915.915 0 0 0-.913-.912M61.674 15.61a3.65 3.65 0 0 0-6.233 2.58 3.65 3.65 0 0 0 7.183.913h-.95a2.736 2.736 0 0 1-2.582 1.826 2.742 2.742 0 0 1-2.741-2.74 2.742 2.742 0 0 1 2.741-2.738c.759 0 1.435.314 1.93.812l-1.473 1.47h3.2v-3.196l-1.075 1.073zM23.45 17.733h-5.56l2.554-2.552-.65-.643-3.655 3.651 3.655 3.653.645-.644-2.55-2.551h5.561zM29.847 17.733h5.561l-2.554-2.552.65-.643 3.655 3.651-3.656 3.653-.645-.644 2.55-2.551h-5.56z"/>
        <path fill="#828286" d="M434.074 22.735H99.538a1.147 1.147 0 0 1-1.147-1.147v-6.837c0-.634.513-1.146 1.147-1.146h334.536c.634 0 1.148.512 1.148 1.146v6.837c0 .633-.514 1.147-1.148 1.147"/>
        <g transform="translate(7 7)">
            <use fill="#000" filter="url(#c)" xlink:href="#d"/>
            <use fill="#FFF" xlink:href="#d"/>
        </g>
        <path fill="#FFF" d="M35.624 86.895h217.452V73.71H35.624z"/>
        <path fill="#E7E7EC" d="M35.338 87.181h218.025V73.424H35.338v13.757zm.573-.573H252.79v-12.61H35.91v12.61z"/>
        <path fill="#FFF" d="M258.24 86.895H379.3V73.71H258.24z"/>
        <path fill="#E7E7EC" d="M257.953 87.181h121.635V73.424H257.953v13.757zm.573-.573h120.488v-12.61H258.526v12.61zM35.338 87.181h68.85V73.424h-68.85z"/>
        <path fill="#DEDEE3" d="M111.074 82.025h114.75v-3.44h-114.75z"/>
        <path fill="#E7E7EC" d="M397.949 87.181h41.31V73.424h-41.31z"/>
        <text fill="#55555A" font-family="Calibre-Semibold, Calibre" font-size="11" font-weight="500" transform="translate(7 7)">
            <tspan x="24.749" y="46.746">Signals</tspan>
        </text>
        <g>
            <path fill="#BEBEC3" d="M99.029 79.081h-4.375a.388.388 0 0 0-.277.663l2.188 2.169c.153.152.4.152.553 0l2.187-2.17a.388.388 0 0 0-.276-.662"/>
            <path fill="#DEDEE3" d="M375.059 82.846l-.008.008a.42.42 0 0 1-.59-.016l-1.536-1.535a2.22 2.22 0 0 1-1.26.389 2.231 2.231 0 0 1-2.235-2.228c0-1.229 1.001-2.226 2.236-2.226 1.234 0 2.235.997 2.235 2.226 0 .468-.146.902-.395 1.261l1.532 1.53c.16.161.178.427.02.591m-3.393-4.994c-.9 0-1.629.726-1.629 1.621 0 .896.729 1.623 1.629 1.623s1.628-.727 1.628-1.623c0-.895-.729-1.62-1.628-1.62"/>
            <g transform="translate(29.95 76.932)">
                <use fill="#000" filter="url(#e)" xlink:href="#f"/>
                <use fill="#FFF" xlink:href="#f"/>
            </g>
            <path fill="#DEDEE3" d="M36.835 276.41h54.417v-3.44H36.835zM36.835 248.895h78.03v-3.439h-78.03z"/>
            <path fill="#AAAAAF" d="M36.835 224.82h68.85v-3.439h-68.85z"/>
            <path fill="#DEDEE3" d="M397.15 276.41h17.486v-3.44H397.15zM397.15 248.895h10.929v-3.439H397.15z"/>
            <path fill="#AAAAAF" d="M397.15 224.82h22.95v-3.439h-22.95zM344.365 224.82h28.688v-3.439h-28.688z"/>
            <path fill="#DEDEE3" d="M257.634 316.536h4.59V213.357h-4.59zM36.835 303.924h66.856v-3.44H36.835zM396.35 303.924H404v-3.44h-7.65zM344.365 276.41h17.486v-3.44h-17.486zM344.365 248.895h10.929v-3.439h-10.929zM344.365 303.924h7.65v-3.44h-7.65z"/>
            <path stroke="#D2D2D7" stroke-width=".5" d="M29.95 233.993h413.1"/>
            <path stroke="#E7E7EC" stroke-width=".5" d="M29.95 289.021h413.1M29.95 261.507h413.1M130.93 213.357v103.179M337.48 213.357v103.179M389.118 213.357v103.179"/>
            <path stroke="#B0AC31" stroke-linecap="round" stroke-width=".5" d="M130.93 281.642l2.13-1.858h1.6l.798 1.085h8.523l1.066.773h2.796l1.198.93 3.063-.156 2.13-2.632 1.2.93 8.39-.155 1.198-6.947h1.864l.8-1.085h.931l2.264 1.704h2.131l1.732-1.859 3.063 6.812h1.064l.534 1.085 3.063-.774 1.597 1.393 5.195-4.18 2.13-.155 2.13 1.393 2.664.31 1.864-2.322 2.264 2.167.932.155 1.066-1.083 2.131.154.932 1.548 1.065-1.238.933-.155.931-1.238 2.131.155 1.732 2.012 1.198-.155.667 1.084 2.264-.31.931.62 1.998-.775 2.664 1.112 2.13.874 1.998-.747 2.664-.738 2.796-1.148.932 1.24 1.465-.31 1.598 1.084 2.53-.03 1.465-.435 3.754-.2 2.526-.251 3.442 1.718 2.663-3.717 1.332-.31 1.065-.464 2.797 2.322 1.465 2.013 2.93-.154 2.264-.675 1.598.492 1.464-1.148 1.2-.219 1.597-1.483.933-.156 2.796 1.795 1.597-3.414 2.398-6.721 1.199-.31.931-1.084 2.265 2.322 1.997.465.932 7.813 1.732 1.084 2.13-.648 3.063.155 1.2.775 1.597.155 1.066-1.24 3.062.83 1.732-1.977 1.065-.154 2.53 1.64h1.332l4.128-2.105h1.465l2.264 2.323 1.331-2.021 2.664.564 2.531-.155 1.597-.155.8-5.674 1.73.156 2.398 7.067.666-1.085 2.797.155.932-4.37 2.53 4.554h2.663l1.865-1.499M130.93 306.049h1.376l2.615.42 1.1-.15 1.79-.691 3.165.69 1.102-1.207 1.651.151 1.238.755 3.166.151 2.202.575 1.79-2.386.962.905 2.064.452 1.553-1.822h1.554l1.65.4h2.397l.583-1.586h1.359l.874 1.586 1.532 1.167 3.219-1.73 1.287.34 3.025-.471.873 1.29h2.04l.776-1.408 6.215 2.294.583-4.038h1.166l1.418 3.815 1.931-.157 1.849.289.964-1.056 1.238-.301 2.477 1.492 1.652-2.142 2.89.347.963-.15 1.652-.382 1.239-2.537 1.513-3.442 1.376.1 2.615-1.254 3.028.996 1.514 4.256 2.89 2.263 1.1-.453 1.378-.302 2.752.97 2.202-.728 2.064.453 5.78-.846 1.515 1.81 2.615-2.263 1.651 1.057 1.514-.301.962 1.206h2.89l1.73-3.828 2.575.157 3.004-2.519 2.463-.453 1.206 3.653 1.822-.026 2.34-2.191 1.183.119 2.532 4.635 2.203.151.963-.06.963-.15 1.102-1.207.963 1.51 2.202.15 1.101-1.057.963.152 2.34.964 1.926-1.116 2.753.302 2.202.21 2.202-.15 5.367-6.368 1.651 1.358 3.166-.755.55 1.056 1.102 2.295 4.953-2.567 3.22 4.905 1.863-.254h2.663l2.528-.122.932-.906 2.795.15.667.093 2.395 1.266 1.73.15.799-1.056 1.597-.15 2.53-.151 2.661-3.922 1.331 3.62 2.263 2.263h1.464l5.046-4.137M130.93 256.236l1.936-.559 2.583-.176 1.936 1.301 2.366.193 3.228.545 3.228.626 2.366-.353 3.657-7.516 2.367-.176 1.721 1.045 1.506 1.376 1.937-2.624 2.398 7.804 1.36-1.486 1.836.97.86-.653 2.583.08 2.58-1.028 2.799.62 2.366-.354 2.869-.218.86 1.092 3.3.47 4.16-1.767 1.65 1.074 2.134.159 1.953-1.939 2.725.353 2.582-9.588 1.434 4.057 2.008-.237 1.291-1.707h1.578l1.721 1.236c.127.658 2.152 6.095 2.152 6.095l1.865-.353 2.008-1.42 2.008 3.561 1.721-.28 2.869-.355 1.434 1.192 2.439-1.427 2.869.9 2.151-.353 2.295-.298 1.578.118 1.865-1.023 2.438 1.179 2.295-2.121 2.582.314 2.725.405 2.152.353 3.155-.688 2.726 1.384.717-2.594 1.652-5.943 2.651 1.03 2.582-2.976 2.869 6.122 1.373 2.665 1.495-.426 1.865 1.414h2.869l2.008-5.422 2.008.825 3.156-1.297 1.434.708 1.291 3.151 1.721.943 1.721-.235 1.291.86 2.009-1.933 1.864.693 1.865 1.121 1.865.118.86-1.27 2.726-.252 2.295.457 1.434 1.29 2.008-1.468 1.721.236 1.865.706 2.438-1.062 2.295 1.44 2.009-.237 3.155-1.023 1.578.118 2.295.936 1.29-.235 1.886-1.103 1.735-.157.827 1.409 2.008.558 2.008-2.232 1.963.78 1.91.287 2.151 1.478 2.582-1.718"/>
            <g transform="translate(29.95 76.932)">
                <use fill="#000" filter="url(#g)" xlink:href="#h"/>
                <use fill="#FFF" xlink:href="#h"/>
            </g>
            <path fill="#DEDEE3" d="M36.835 164.057h54.417v-3.439H36.835zM36.835 136.543h78.03v-3.44h-78.03z"/>
            <path fill="#AAAAAF" d="M36.835 112.47h68.85v-3.44h-68.85z"/>
            <path fill="#DEDEE3" d="M397.15 164.057h17.486v-3.439H397.15zM397.15 136.543h10.929v-3.44H397.15z"/>
            <path fill="#AAAAAF" d="M397.15 112.47h22.95v-3.44h-22.95zM344.365 112.47h28.688v-3.44h-28.688z"/>
            <path fill="#DEDEE3" d="M36.835 191.572h66.856v-3.44H36.835zM396.35 191.572H404v-3.44h-7.65zM344.365 164.057h17.486v-3.439h-17.486zM344.365 136.543h10.929v-3.44h-10.929zM257.634 204.185h4.59V101.006h-4.59zM344.365 191.572h7.65v-3.44h-7.65z"/>
            <path stroke="#D2D2D7" stroke-width=".5" d="M29.95 121.641h413.1"/>
            <path stroke="#E7E7EC" stroke-width=".5" d="M29.95 176.67h413.1M29.95 149.155h413.1M130.93 101.005v103.179M337.48 101.005v103.179M389.118 101.005v103.179"/>
            <path stroke="#B091F2" stroke-linecap="round" stroke-width=".5" d="M337.48 192.738h-1.376l-2.615-3.172-1.102.176-1.789 2.73-3.164-6.17-1.102 1.41-1.651-.176-1.238-.881-3.166-.176-2.202 3.348-1.79-1.234-.963-1.057-2.065-.53-1.551 6.152h-1.554l-1.651-4.489h-2.396l-.583 1.854h-1.36l-.873-1.854-1.532-1.363-3.219 2.021-1.287 4.965-3.025.552-.873-2.85h-2.04l-.777-2.375h-6.215l-.582-3.324h-1.166l-1.418 3.585-1.931.183-1.849-5.7-.964 1.234-1.238.353-2.477-1.745-1.652 2.505-2.89-.407-.964.176-1.651 4.467-1.239-1.057h-1.514l-1.375 2.564-2.616-1.216-3.027.177-1.514-2.292-2.89-2.643-1.1.528-1.378.353-2.752 4.23-2.202-3.173-2.065-.529-5.78-.352-1.514-2.115-2.615 2.644-1.651-1.234-1.514.352-.964-1.41h-2.889l-1.73 4.475-2.574-.185-3.004 2.942-2.464.53-1.206-4.266-1.821.03-2.34 2.558-1.183-.14-2.532-5.414-2.203-.177-.963 1.41-.963.177-1.102 1.409-.963-1.762-2.202-.177-1.101 1.234-.963-.176-2.34-2.468-1.926 2.644-2.753-.352-2.202-1.586-2.202.176-5.367 4.759-1.653-1.587-3.164.882-.551-1.234h-1.1l-4.954 2.998-3.22-5.729-1.864 4.318h-2.662l-2.53-3.879-.93 1.058-2.796-.176-.666 1.233-2.396-2.819-1.73-.176-.799 1.233-1.597.177-2.53.175-2.661 4.584-1.332-4.23-2.262-2.645h-1.465l-5.044 4.834M130.93 140.904l1.936-3.13 2.583.172 2.366-.515 2.152 1.603 3.012-.134 3.228-4.687 3.226 3.485h2.582l2.152 1.336 1.721-.267 2.366-1.736h1.722l2.183-1.26 2.12 4.732 3.012-.268 1.722-1.335 2.152-.533 1.936 2.27 2.367-.402 2.151-3.338 2.152-.534 3.443 2.27 2.151.267 2.366-3.794 1.65.716 2.135-.154 2.886-1.71 1.936.402 2.438-.753 1.434 2.768 2.008.232 1.291 1.67h1.578l1.721-1.21c.127-.643 2.152-1.472 2.152-1.472l1.865.345 2.008 1.39 2.008-.117 1.721 1.988 2.869.347 1.434-.633 2.439.863 2.869-2.594 2.151.346 2.295 2.005 1.578-.116 1.865-4.081 2.438-1.155 2.295 2.078 2.582-.308 2.725 1.85 2.152-.345 3.155-4.3 2.726-.231.717 2.538 1.652.203 2.651-1.01 2.582 4.039 2.869-1.5 1.373-2.61 1.495.417 1.865-1.385h2.869l2.008 5.308 2.008-.807 3.156 1.27 1.434-.693 1.291-1.962 1.721 2.282 1.721.231 1.291-1.966 2.009 1.893 1.864-.68 1.865-1.098 1.865-.115.86 1.244 2.726-2.958 2.295-2.05 1.434 1.627 2.008-1.453 1.721-.23 1.865 1.555 2.869.277 1.864 2.723 2.009.232 3.155-3.014 1.578-.115 2.295 3.577 1.29.23 1.886 2.463 1.735.155.827-3.887 2.008.577 2.008-2.308 1.963 4.658 1.91-1.404 2.151.801 2.582 1.944M337.48 156.737l-1.936 5.467-2.583.239-.429-2.104-5.38 4.319-3.442.353-2.367-5.522-2.366-.476-2.797 4.03-2.367.238-2.582-1.409-2.582.984-3.227-.184-1.721-4.044-2.152 2.757-2.367 1.47-.646-3.676-2.582 2.206-2.51-1.046-2.653 1.23-1.722-1.47-1.075-2.574-3.775 9.037-2.582.287-3.11-3.863-1.634-1.35-2.024 2.63-1.936.623-1.937 2.325-2.796-4.23-2.008.319-.43-2.848h-1.579l-2.581 3.483c-.127-.889-2.152-1.057-2.152-1.057l-1.865.477-2.008-3.972-2.008-.159-1.721-.941-2.869 7.355-1.434-2.6-2.439 2.918-2.868 1.576-2.152.477-2.295-4.595-1.578-.159-1.865-5.143-2.438-1.589-2.295 2.86-2.582-1.895-2.725 4.755-2.152-.477-3.155-3.589-2.726-.317-.717 2.636-1.652.277-2.651 6.349-2.582-1.06-2.869 1.975-1.373-3.593-1.495.575-1.865-6.206h-2.869l-2.008 1.425-2.008-1.114-3.156 1.749-1.434-.954-1.291 7.483-1.721.935-1.721-1.888-1.865-1.38-1.435 2.015-1.864 1.27-2.08-3.284-1.65 4.556-.86-2.701-2.726-3.336-2.295 1.589-1.434 4.448-2.438.592-1.936-.551-1.22-2.424-2.438 1.43-2.295-4.654-2.009.317-3.155 4.677-1.578-5.318-2.295 1.249-1.29.317-1.887-4.7-1.734.212-.826-3.878-2.009.794-2.008 3.442-1.963 2.698-1.91-1.933-2.151-.366-2.582 3.125"/>
            <path fill="#FFF" d="M259.93 248.572a2.01 2.01 0 0 1-2.009-2.006c0-1.107.9-2.007 2.008-2.007 1.107 0 2.008.9 2.008 2.007a2.01 2.01 0 0 1-2.008 2.006"/>
            <path fill="#B0AC31" d="M259.93 244.273a2.296 2.296 0 0 0-2.296 2.293 2.296 2.296 0 0 0 4.59 0 2.296 2.296 0 0 0-2.295-2.293m0 .573a1.72 1.72 0 1 1 .002 3.44 1.72 1.72 0 0 1-.002-3.44"/>
        </g>
    </g>
</svg>
