<?xml version="1.0" encoding="utf-8"?>
<!-- Generator: Adobe Illustrator 26.0.3, SVG Export Plug-In . SVG Version: 6.00 Build 0)  -->
<svg version="1.1" id="_x32_-Color_425__x2B__166" xmlns="http://www.w3.org/2000/svg" xmlns:xlink="http://www.w3.org/1999/xlink"
	 x="0px" y="0px" viewBox="0 0 500 192" style="enable-background:new 0 0 500 192;" xml:space="preserve">
<style type="text/css">
	.st0{fill:#001240;}
	.st1{fill:#F95E28;}
</style>
<g>
	<g>
		<g>
			<g>
				<g>
					<path class="st0" d="M1.9,115.6l7.8-9.3c5.4,4.5,11,7.3,17.9,7.3c5.4,0,8.7-2.1,8.7-5.7v-0.2c0-3.3-2.1-5.1-12.1-7.6
						C12.1,97,4.3,93.7,4.3,81.7v-0.2c0-10.9,8.7-18.1,21-18.1c8.7,0,16.2,2.7,22.3,7.6l-6.9,9.9c-5.3-3.7-10.5-5.9-15.6-5.9
						c-5.1,0-7.7,2.3-7.7,5.2v0.2c0,3.9,2.6,5.2,12.9,7.9c12.2,3.2,19,7.5,19,18v0.2c0,11.9-9.1,18.6-22,18.6
						C18.3,125.2,9.1,122,1.9,115.6z"/>
				</g>
				<g>
					<path class="st0" d="M57.4,64.4h24.5c14.3,0,22.9,8.5,22.9,20.7v0.2c0,13.9-10.8,21.1-24.2,21.1h-10v18H57.4V64.4z M81.1,94.6
						c6.6,0,10.4-3.9,10.4-9.1v-0.2c0-5.9-4.1-9.1-10.7-9.1H70.6v18.3H81.1z"/>
				</g>
				<g>
					<path class="st0" d="M123.5,63.9h12.2l25.7,60.4h-13.8l-5.5-13.4h-25.3l-5.5,13.4H97.8L123.5,63.9z M137.4,99.2l-8-19.4
						l-8,19.4H137.4z"/>
				</g>
				<g>
					<path class="st0" d="M167.6,64.4H195c7.6,0,13.5,2.1,17.5,6.1c3.3,3.3,5.1,8,5.1,13.7v0.2c0,9.7-5.2,15.8-12.8,18.6l14.6,21.4
						H204l-12.8-19.2h-10.4v19.2h-13.2V64.4z M194.2,93.5c6.4,0,10.1-3.4,10.1-8.5v-0.2c0-5.7-3.9-8.6-10.4-8.6h-13.1v17.2H194.2z"
						/>
				</g>
				<g>
					<g>
						<path class="st0" d="M287.7,64.4h21.7c13.2,0,22.3,6.8,22.3,18.3v0.2c0,12.6-10.9,19.1-23.4,19.1h-16.2v22.3h-4.5V64.4z
							 M308.6,97.8c11.1,0,18.7-5.8,18.7-14.7v-0.2c0-9.5-7.4-14.5-18.2-14.5h-17v29.4H308.6z"/>
					</g>
					<g>
						<path class="st0" d="M403.1,115.6l2.9-3.3c6.6,6.1,12.7,8.9,21.5,8.9c9,0,15.2-5.1,15.2-11.9v-0.2c0-6.3-3.3-10-17-12.8
							c-14.4-2.9-20.2-7.8-20.2-16.9v-0.2c0-8.9,8.1-15.8,19.3-15.8c8.7,0,14.5,2.4,20.6,7.3l-2.8,3.5c-5.7-4.9-11.3-6.8-17.9-6.8
							c-8.8,0-14.6,5.1-14.6,11.3V79c0,6.3,3.3,10.2,17.5,13.1c13.9,2.8,19.7,7.8,19.7,16.5v0.2c0,9.7-8.3,16.4-19.9,16.4
							C417.6,125.2,410.3,122,403.1,115.6z"/>
					</g>
					<g>
						<path class="st0" d="M472.8,68.5h-20.9v-4.1h46.2v4.1h-20.9v55.8h-4.5V68.5z"/>
					</g>
				</g>
				<g>
					<g>
						<path class="st0" d="M239.8,89.6l20.8-25.2h16.1l-24.3,28.5l26.1,31.5h-17l-21.6-26.8v26.8h-13.2V64.4h13.2V89.6z"/>
					</g>
				</g>
			</g>
			<g>
				<path class="st1" d="M389.4,50.7c-6.7,5-8,13.9-8.2,19.9c-10.6-12.2,19.5-48.1-14.7-70.3c21.2,27.4-30.1,54.3-30.1,94.7
					c0,15.8,9.9,29.8,31.6,34.6c21.3-4.5,31.8-18.8,31.8-34.6C399.8,71.4,385.1,63.6,389.4,50.7z M368.1,116.7c-11.6,0-21-9.4-21-21
					c0-11.6,9.4-21,21-21c11.6,0,21,9.4,21,21C389.1,107.3,379.7,116.7,368.1,116.7z"/>
			</g>
		</g>
	</g>
	<g id="A-MessageBird-compan" transform="translate(0.304688, 907.000000)">
		<path id="A" class="st0" d="M7.2-725.6l2.3-6.4h12.2l2.3,6.4h4.1L17.7-753h-4.1L3.3-725.6H7.2z M20.6-735H10.6l5-14.1L20.6-735z"
			/>
		<path id="MessageBird" class="st0" d="M49-725.6v-19.3l6.2,12h3.5l6.2-12v19.3h6V-753h-7.2l-6.4,12.4L50.7-753H43v27.4H49z
			 M87-725.1c0.7,0,1.4,0,2.1-0.1c0.7-0.1,1.5-0.3,2.2-0.5c0.7-0.2,1.4-0.6,2.1-0.9c0.7-0.4,1.3-0.9,1.8-1.5c0.5-0.6,1-1.3,1.4-2.1
			c0.4-0.8,0.7-1.7,0.8-2.7h-5.9c-0.2,1-0.6,1.8-1.4,2.4c-0.7,0.6-1.7,0.9-3,0.9c-1.5,0-2.7-0.5-3.6-1.5c-0.8-1-1.3-2.5-1.3-4.5
			h15.2v-0.9c0-2.2-0.3-4.1-1-5.6c-0.6-1.5-1.5-2.6-2.5-3.5c-1-0.9-2.2-1.5-3.4-1.8c-1.3-0.4-2.5-0.5-3.7-0.5
			c-1.3,0-2.5,0.2-3.8,0.5c-1.3,0.4-2.4,1-3.4,1.9s-1.8,2-2.5,3.5s-0.9,3.3-0.9,5.5c0,2.2,0.3,4,0.9,5.4c0.6,1.5,1.4,2.6,2.4,3.5
			c1,0.9,2.2,1.5,3.4,1.9S85.7-725.1,87-725.1z M91.4-738.9h-9.1c0.2-1.5,0.7-2.7,1.4-3.4c0.8-0.8,1.8-1.1,3.1-1.1
			c1.3,0,2.4,0.4,3.1,1.1C90.8-741.6,91.2-740.5,91.4-738.9z M111.2-725.1c1.2,0,2.3-0.1,3.5-0.4c1.2-0.2,2.2-0.6,3.1-1.2
			c0.9-0.5,1.6-1.3,2.2-2.2c0.6-0.9,0.8-2,0.8-3.3c0-1-0.2-1.9-0.6-2.7c-0.4-0.7-0.9-1.4-1.5-1.9c-0.6-0.5-1.3-0.9-2.1-1.2
			c-0.8-0.3-1.6-0.6-2.4-0.8c-1-0.3-1.8-0.5-2.6-0.7c-0.8-0.2-1.5-0.4-2.1-0.6c-0.6-0.2-1.1-0.4-1.4-0.7c-0.3-0.3-0.5-0.7-0.5-1.2
			c0-0.7,0.3-1.2,0.8-1.5s1.2-0.5,2-0.5c1,0,1.8,0.3,2.4,0.8c0.6,0.5,0.9,1.2,1,2h6c-0.1-1.2-0.4-2.2-0.9-3c-0.5-0.9-1.2-1.6-2-2.2
			s-1.8-1-2.9-1.3c-1.1-0.3-2.3-0.4-3.5-0.4c-1.1,0-2.2,0.1-3.3,0.3s-2,0.6-2.9,1.1c-0.8,0.5-1.5,1.2-2,2s-0.8,1.9-0.8,3.1
			c0,1.1,0.2,2,0.6,2.7c0.4,0.7,0.9,1.3,1.5,1.8c0.6,0.5,1.3,0.9,2.1,1.2c0.8,0.3,1.5,0.5,2.3,0.8c1,0.3,1.9,0.5,2.7,0.7
			c0.8,0.2,1.5,0.4,2.1,0.6c0.6,0.2,1,0.5,1.3,0.8c0.3,0.3,0.4,0.7,0.4,1.2c0,0.8-0.3,1.4-1,1.8c-0.6,0.4-1.5,0.6-2.5,0.6
			c-0.6,0-1.2-0.1-1.8-0.3c-0.5-0.2-1-0.4-1.4-0.7c-0.4-0.3-0.7-0.7-0.9-1.1c-0.2-0.4-0.4-0.9-0.4-1.4h-6c0.1,1.3,0.4,2.4,1,3.3
			c0.6,1,1.3,1.7,2.2,2.4c0.9,0.6,2,1.1,3.2,1.4S109.8-725.1,111.2-725.1z M134.5-725.1c1.2,0,2.3-0.1,3.5-0.4s2.2-0.6,3.1-1.2
			c0.9-0.5,1.6-1.3,2.2-2.2c0.6-0.9,0.8-2,0.8-3.3c0-1-0.2-1.9-0.6-2.7c-0.4-0.7-0.9-1.4-1.5-1.9c-0.6-0.5-1.3-0.9-2.1-1.2
			c-0.8-0.3-1.6-0.6-2.4-0.8c-1-0.3-1.8-0.5-2.6-0.7c-0.8-0.2-1.5-0.4-2.1-0.6c-0.6-0.2-1.1-0.4-1.4-0.7c-0.3-0.3-0.5-0.7-0.5-1.2
			c0-0.7,0.3-1.2,0.8-1.5c0.5-0.4,1.2-0.5,2-0.5c1,0,1.8,0.3,2.4,0.8c0.6,0.5,0.9,1.2,1,2h6c-0.1-1.2-0.4-2.2-0.9-3
			c-0.5-0.9-1.2-1.6-2-2.2c-0.8-0.6-1.8-1-2.9-1.3c-1.1-0.3-2.3-0.4-3.5-0.4c-1.1,0-2.2,0.1-3.3,0.3c-1.1,0.2-2,0.6-2.9,1.1
			c-0.8,0.5-1.5,1.2-2,2c-0.5,0.8-0.8,1.9-0.8,3.1c0,1.1,0.2,2,0.6,2.7c0.4,0.7,0.9,1.3,1.5,1.8c0.6,0.5,1.3,0.9,2.1,1.2
			s1.5,0.5,2.3,0.8c1,0.3,1.9,0.5,2.7,0.7s1.5,0.4,2.1,0.6c0.6,0.2,1,0.5,1.3,0.8c0.3,0.3,0.4,0.7,0.4,1.2c0,0.8-0.3,1.4-1,1.8
			s-1.5,0.6-2.5,0.6c-0.6,0-1.2-0.1-1.8-0.3c-0.5-0.2-1-0.4-1.4-0.7c-0.4-0.3-0.7-0.7-0.9-1.1c-0.2-0.4-0.4-0.9-0.4-1.4h-6
			c0.1,1.3,0.4,2.4,1,3.3c0.6,1,1.3,1.7,2.2,2.4c0.9,0.6,2,1.1,3.2,1.4C131.8-725.2,133.1-725.1,134.5-725.1z M166.3-725.1
			c0.8,0,1.6-0.1,2.3-0.3s1.2-0.4,1.6-0.7v-4.1c-0.2,0.1-0.5,0.2-0.8,0.3c-0.3,0.1-0.6,0.1-0.9,0.1c-0.4,0-0.8-0.1-0.9-0.3
			c-0.2-0.2-0.3-0.5-0.3-1v-8.5c0-1.3-0.1-2.5-0.4-3.5c-0.3-1-0.8-1.9-1.5-2.7c-0.7-0.7-1.6-1.3-2.8-1.7c-1.2-0.4-2.6-0.6-4.3-0.6
			c-1.1,0-2.3,0.1-3.4,0.3c-1.2,0.2-2.2,0.6-3.2,1.2c-0.9,0.6-1.7,1.4-2.3,2.5c-0.6,1.1-0.9,2.4-1,4.1h5.7c0-1.1,0.3-2,0.8-2.7
			c0.5-0.6,1.5-0.9,2.8-0.9c0.8,0,1.4,0.1,1.8,0.3c0.5,0.2,0.8,0.5,1.1,0.9c0.2,0.4,0.4,0.9,0.5,1.4c0.1,0.6,0.1,1.2,0.1,1.9v0.5
			l-4.7,0.4c-0.6,0-1.3,0.1-2,0.2c-0.7,0.1-1.4,0.2-2,0.5c-0.7,0.2-1.3,0.5-1.9,0.8s-1.1,0.7-1.6,1.2c-0.5,0.5-0.8,1.1-1.1,1.7
			c-0.3,0.7-0.4,1.5-0.4,2.4c0,1.1,0.2,2,0.6,2.8c0.4,0.8,0.9,1.4,1.5,1.9c0.6,0.5,1.4,0.9,2.2,1.1c0.9,0.2,1.8,0.4,2.7,0.4
			c1,0,1.8-0.1,2.7-0.3c0.8-0.2,1.6-0.5,2.2-0.8c0.6-0.3,1.2-0.7,1.7-1.1s0.9-0.8,1.2-1.2v0.2c0,0.4,0.1,0.8,0.2,1.1
			c0.1,0.4,0.3,0.7,0.6,1c0.3,0.3,0.7,0.6,1.2,0.7C164.8-725.2,165.5-725.1,166.3-725.1z M156.6-729.2c-1,0-1.8-0.2-2.3-0.6
			c-0.5-0.4-0.7-1-0.7-1.8c0-1,0.3-1.7,1-2.1s1.7-0.8,3.1-0.9l3.5-0.4v4.1c-0.6,0.5-1.3,1-2.1,1.3
			C158.4-729.4,157.5-729.2,156.6-729.2z M183-715.3c1.9,0,3.5-0.2,5-0.5c1.5-0.3,2.7-0.8,3.8-1.4c1-0.6,1.8-1.4,2.4-2.4
			c0.6-0.9,0.8-2,0.8-3.3c0-1.1-0.2-2.1-0.7-2.8c-0.4-0.8-1-1.4-1.8-1.9c-0.8-0.5-1.6-0.8-2.6-1.1c-1-0.2-2.1-0.3-3.2-0.3h-5.6
			c-1.1,0-1.9-0.2-2.5-0.5c-0.5-0.3-0.8-0.7-0.8-1.3c0-0.4,0.1-0.7,0.4-1c0.3-0.3,0.6-0.5,0.9-0.7c0.6,0.2,1.3,0.3,2,0.4
			c0.7,0.1,1.3,0.1,1.9,0.1c1.1,0,2.1-0.1,3.3-0.4c1.1-0.3,2.2-0.8,3.1-1.4c0.9-0.6,1.7-1.5,2.3-2.5c0.6-1,0.9-2.2,0.9-3.7
			c0-0.4,0-0.8-0.1-1.1c-0.1-0.3-0.1-0.7-0.2-1c0.5-0.2,1-0.4,1.7-0.5c0.6-0.1,1.4-0.1,2.3-0.1v-5.3c-1.5,0-2.7,0.3-3.6,0.8
			c-0.9,0.5-1.7,1.2-2.2,2c-0.5-0.5-1-0.9-1.7-1.2c-0.6-0.4-1.2-0.6-1.9-0.9c-0.7-0.2-1.3-0.4-2-0.5c-0.7-0.1-1.3-0.2-2-0.2
			c-1.1,0-2.1,0.1-3.3,0.4c-1.1,0.3-2.2,0.8-3.1,1.4c-0.9,0.6-1.7,1.5-2.3,2.5c-0.6,1-0.9,2.2-0.9,3.7c0,1.4,0.3,2.6,0.9,3.7
			c0.6,1,1.4,1.8,2.3,2.5c-0.5,0.2-0.9,0.5-1.4,0.7s-0.8,0.6-1.1,0.9c-0.3,0.4-0.6,0.7-0.8,1.2c-0.2,0.4-0.3,0.9-0.3,1.4
			c0,0.5,0.1,0.9,0.2,1.3c0.1,0.4,0.3,0.8,0.6,1.1s0.6,0.6,0.9,0.9c0.3,0.2,0.7,0.5,1.1,0.6c-0.5,0.2-0.9,0.4-1.4,0.7
			c-0.4,0.3-0.8,0.6-1.2,0.9c-0.3,0.4-0.6,0.8-0.8,1.2c-0.2,0.5-0.3,1-0.3,1.6c0,0.9,0.2,1.7,0.7,2.4c0.5,0.7,1.2,1.3,2.1,1.9
			c0.9,0.5,2.1,0.9,3.4,1.2C179.7-715.5,181.3-715.3,183-715.3z M183-736.2c-1.3,0-2.2-0.3-2.9-1c-0.7-0.7-1-1.6-1-2.7
			c0-1.2,0.3-2.1,1-2.7c0.7-0.7,1.7-1,2.9-1c1.3,0,2.2,0.3,2.9,1c0.7,0.7,1,1.6,1,2.7c0,1.2-0.3,2.1-1,2.7
			C185.2-736.5,184.2-736.2,183-736.2z M183.2-719.2c-2.1,0-3.6-0.3-4.5-0.8c-0.9-0.5-1.4-1.2-1.4-2.1c0-0.5,0.1-1,0.4-1.4
			c0.3-0.4,0.6-0.6,1-0.8h6.9c1.3,0,2.2,0.2,2.8,0.5c0.6,0.3,0.9,0.9,0.9,1.6c0,1-0.5,1.8-1.6,2.2
			C186.7-719.4,185.2-719.2,183.2-719.2z M208.8-725.1c0.7,0,1.4,0,2.1-0.1c0.7-0.1,1.5-0.3,2.2-0.5c0.7-0.2,1.4-0.6,2.1-0.9
			c0.7-0.4,1.3-0.9,1.8-1.5c0.5-0.6,1-1.3,1.4-2.1c0.4-0.8,0.7-1.7,0.8-2.7h-5.9c-0.2,1-0.6,1.8-1.4,2.4c-0.7,0.6-1.7,0.9-3,0.9
			c-1.5,0-2.7-0.5-3.6-1.5c-0.8-1-1.3-2.5-1.3-4.5h15.2v-0.9c0-2.2-0.3-4.1-1-5.6c-0.6-1.5-1.5-2.6-2.5-3.5c-1-0.9-2.2-1.5-3.4-1.8
			c-1.3-0.4-2.5-0.5-3.7-0.5c-1.3,0-2.5,0.2-3.8,0.5c-1.3,0.4-2.4,1-3.4,1.9c-1,0.9-1.8,2-2.5,3.5s-0.9,3.3-0.9,5.5
			c0,2.2,0.3,4,0.9,5.4c0.6,1.5,1.4,2.6,2.4,3.5c1,0.9,2.2,1.5,3.4,1.9C206.2-725.3,207.5-725.1,208.8-725.1z M213.2-738.9h-9.1
			c0.2-1.5,0.7-2.7,1.4-3.4c0.8-0.8,1.8-1.1,3.1-1.1c1.3,0,2.4,0.4,3.1,1.1C212.6-741.6,213.1-740.5,213.2-738.9z M236.9-725.6
			c3.5,0,6.1-0.7,7.9-2.1c1.8-1.4,2.7-3.3,2.7-5.9c0-1.7-0.4-3.1-1.2-4c-0.8-1-2-1.7-3.4-2.2c1.1-0.5,2-1.2,2.6-2.1
			c0.6-0.9,0.9-2,0.9-3.5c0-2.4-0.9-4.3-2.6-5.7c-1.7-1.3-4.3-2-7.6-2h-11.4v27.4H236.9z M235.5-741.9H231v-6.2h4.5
			c0.9,0,1.6,0.1,2.2,0.2c0.6,0.1,1,0.3,1.4,0.6c0.3,0.3,0.6,0.6,0.7,1c0.1,0.4,0.2,0.8,0.2,1.3c0,0.5-0.1,0.9-0.2,1.3
			c-0.1,0.4-0.4,0.7-0.7,1c-0.3,0.3-0.8,0.5-1.4,0.6S236.4-741.9,235.5-741.9z M236.2-730.5H231v-6.8h5.2c1,0,1.8,0.1,2.4,0.2
			c0.6,0.2,1.1,0.4,1.5,0.7c0.4,0.3,0.6,0.7,0.8,1.1c0.1,0.4,0.2,0.9,0.2,1.4c0,0.5-0.1,1-0.2,1.4c-0.1,0.4-0.4,0.8-0.8,1.1
			c-0.4,0.3-0.9,0.5-1.5,0.7C238-730.6,237.2-730.5,236.2-730.5z M259.1-752.7v-5.4h-6.4v5.4H259.1z M259-725.6v-21.9h-6.1v21.9H259
			z M271.3-725.6v-15.5c0.4-0.6,1-1,1.8-1.3s1.7-0.5,2.7-0.5c0.6,0,1.2,0.1,1.7,0.2c0.5,0.1,1,0.3,1.4,0.5v-5.2
			c-0.1-0.1-0.4-0.2-0.8-0.3c-0.4-0.1-1-0.2-1.8-0.2c-1.4,0-2.6,0.3-3.5,0.9c-0.9,0.6-1.7,1.5-2.3,2.6v-3h-5.4v21.9H271.3z
			 M290.5-725.1c0.9,0,1.7-0.1,2.4-0.3s1.3-0.4,1.9-0.7s1-0.6,1.4-1c0.4-0.4,0.7-0.7,0.9-1.1v2.6h5.4v-32.5h-6.1v12.7
			c-0.2-0.2-0.4-0.5-0.8-0.8c-0.3-0.3-0.7-0.6-1.2-0.8c-0.5-0.3-1-0.5-1.7-0.7c-0.6-0.2-1.4-0.3-2.2-0.3c-1.2,0-2.3,0.2-3.4,0.6
			c-1.1,0.4-2.1,1.1-3,2c-0.9,0.9-1.6,2.1-2.1,3.6c-0.5,1.5-0.8,3.2-0.8,5.3c0,2.1,0.3,3.8,0.8,5.3c0.5,1.4,1.2,2.6,2.1,3.5
			c0.9,0.9,1.9,1.6,3,2C288.2-725.3,289.3-725.1,290.5-725.1z M292.3-730.1c-1.7,0-2.9-0.6-3.7-1.7c-0.8-1.1-1.2-2.7-1.2-4.8
			c0-2.1,0.4-3.7,1.2-4.8c0.8-1.1,2.1-1.6,3.7-1.6c0.8,0,1.6,0.1,2.3,0.4c0.7,0.3,1.3,0.6,1.7,1.1v9.9c-0.5,0.4-1.1,0.8-1.7,1.1
			C293.9-730.2,293.2-730.1,292.3-730.1z"/>
		<path id="company" class="st0" d="M327.6-725.1c1.2,0,2.3-0.2,3.3-0.5s1.9-0.8,2.7-1.5s1.4-1.5,1.8-2.4c0.5-1,0.7-2.1,0.8-3.4
			h-3.6c0,0.6-0.2,1.2-0.4,1.8s-0.5,1.1-0.9,1.5s-0.9,0.7-1.6,1c-0.6,0.2-1.4,0.4-2.2,0.4c-2,0-3.5-0.7-4.6-2c-1-1.3-1.6-3.3-1.6-6
			s0.5-4.7,1.6-6c1-1.3,2.6-2,4.6-2c0.9,0,1.6,0.1,2.2,0.4c0.6,0.2,1.1,0.6,1.6,1s0.7,0.9,0.9,1.5c0.2,0.6,0.3,1.1,0.4,1.8h3.6
			c-0.1-1.3-0.4-2.4-0.8-3.3c-0.5-1-1.1-1.8-1.8-2.4s-1.7-1.2-2.7-1.5s-2.1-0.5-3.3-0.5c-0.7,0-1.5,0.1-2.3,0.2
			c-0.8,0.1-1.5,0.4-2.3,0.7c-0.7,0.3-1.4,0.8-2.1,1.3c-0.6,0.5-1.2,1.2-1.7,2.1s-0.9,1.8-1.2,2.9c-0.3,1.1-0.4,2.4-0.4,3.9
			c0,1.5,0.1,2.8,0.4,3.9c0.3,1.1,0.7,2.1,1.2,2.9s1.1,1.5,1.7,2.1c0.6,0.5,1.3,1,2.1,1.3c0.7,0.3,1.5,0.6,2.3,0.7
			C326.1-725.1,326.9-725.1,327.6-725.1z M350.9-725.1c1.2,0,2.3-0.2,3.5-0.5c1.2-0.3,2.2-0.9,3.2-1.8c0.9-0.9,1.7-2,2.3-3.4
			c0.6-1.4,0.9-3.2,0.9-5.4c0-2.2-0.3-4-0.9-5.4c-0.6-1.4-1.4-2.6-2.3-3.4c-0.9-0.9-2-1.4-3.2-1.8c-1.2-0.3-2.3-0.5-3.5-0.5
			c-0.8,0-1.6,0.1-2.3,0.2c-0.8,0.1-1.5,0.4-2.3,0.7c-0.7,0.3-1.4,0.8-2.1,1.4c-0.6,0.6-1.2,1.3-1.7,2.1c-0.5,0.8-0.9,1.8-1.1,2.9
			c-0.3,1.1-0.4,2.4-0.4,3.8c0,1.5,0.1,2.7,0.4,3.9c0.3,1.1,0.6,2.1,1.1,2.9c0.5,0.8,1,1.5,1.7,2.1c0.6,0.6,1.3,1,2.1,1.4
			c0.7,0.3,1.5,0.6,2.3,0.7C349.4-725.1,350.2-725.1,350.9-725.1z M350.9-728.3c-2,0-3.6-0.7-4.6-2s-1.6-3.3-1.6-6s0.5-4.7,1.6-6
			c1-1.3,2.6-2,4.6-2s3.6,0.7,4.6,2c1,1.3,1.6,3.3,1.6,6s-0.5,4.7-1.6,6S353-728.3,350.9-728.3z M370.8-725.6v-16.5
			c0.2-0.3,0.5-0.5,0.8-0.8c0.3-0.3,0.7-0.5,1.1-0.7c0.4-0.2,0.9-0.4,1.4-0.5c0.5-0.1,1.1-0.2,1.7-0.2c0.9,0,1.6,0.1,2.2,0.4
			c0.6,0.3,1,0.7,1.3,1.2s0.5,1.2,0.7,2c0.1,0.8,0.2,1.7,0.2,2.7v12.3h3.7v-13.2c0-0.6,0-1.1-0.1-1.6c0-0.5-0.1-0.9-0.2-1.4
			c0.2-0.3,0.5-0.6,0.8-0.9c0.3-0.3,0.7-0.6,1.1-0.8c0.4-0.2,0.9-0.4,1.5-0.6c0.6-0.2,1.2-0.2,1.8-0.2c0.9,0,1.6,0.1,2.1,0.4
			c0.6,0.3,1,0.7,1.3,1.2c0.3,0.5,0.5,1.2,0.6,2c0.1,0.8,0.2,1.7,0.2,2.7v12.3h3.7v-13.2c0-1.8-0.2-3.3-0.6-4.4
			c-0.4-1.1-0.9-2-1.6-2.7c-0.6-0.6-1.4-1.1-2.2-1.3c-0.8-0.2-1.7-0.3-2.5-0.3c-0.9,0-1.7,0.1-2.4,0.3c-0.7,0.2-1.4,0.4-1.9,0.7
			s-1.1,0.7-1.5,1.1s-0.8,0.9-1.2,1.3c-0.3-0.7-0.7-1.2-1.2-1.7c-0.4-0.4-0.9-0.8-1.4-1c-0.5-0.3-1.1-0.4-1.6-0.5
			c-0.6-0.1-1.2-0.1-1.7-0.1c-0.9,0-1.7,0.1-2.3,0.3c-0.7,0.2-1.3,0.4-1.8,0.7s-1,0.6-1.4,1c-0.4,0.4-0.8,0.8-1,1.3v-2.8h-3.1v21.4
			H370.8z M407.8-715.8v-11.9c0.2,0.3,0.5,0.5,0.9,0.9s0.8,0.6,1.3,0.9s1.1,0.5,1.7,0.7c0.6,0.2,1.4,0.3,2.2,0.3
			c1.1,0,2.2-0.2,3.3-0.6s2-1.1,2.9-2c0.8-0.9,1.5-2.1,2-3.5c0.5-1.4,0.8-3.2,0.8-5.2c0-2-0.3-3.7-0.8-5.1c-0.5-1.4-1.2-2.5-2-3.4
			c-0.8-0.9-1.8-1.5-2.9-1.9s-2.2-0.6-3.3-0.6c-0.9,0-1.7,0.1-2.3,0.3c-0.7,0.2-1.3,0.4-1.9,0.7c-0.6,0.3-1,0.6-1.4,1
			c-0.4,0.4-0.8,0.7-1.1,1.1v-2.7h-3.1v31.1H407.8z M412.9-728.3c-1.1,0-2.1-0.2-3-0.6s-1.6-0.9-2.2-1.5v-11.7
			c0.6-0.6,1.3-1.1,2.2-1.5s1.9-0.6,3-0.6c2,0,3.5,0.7,4.5,2.1c1,1.4,1.5,3.4,1.5,5.9c0,2.5-0.5,4.5-1.5,5.9
			C416.5-729,414.9-728.3,412.9-728.3z M444.7-725.1c0.6,0,1.2-0.1,1.7-0.2c0.5-0.1,0.9-0.3,1.2-0.5v-2.8c-0.2,0.1-0.5,0.3-0.9,0.4
			c-0.3,0.1-0.6,0.1-1,0.1c-0.4,0-0.8-0.1-0.9-0.3c-0.2-0.2-0.3-0.6-0.3-1v-9.8c0-1.3-0.1-2.5-0.4-3.5c-0.3-1-0.7-1.9-1.3-2.6
			c-0.6-0.7-1.4-1.3-2.4-1.6c-1-0.4-2.2-0.6-3.7-0.6c-1,0-2,0.1-3,0.3c-1,0.2-2,0.6-2.8,1.2s-1.5,1.3-2.1,2.3s-0.8,2.3-0.8,3.9h3.6
			c0-0.8,0.1-1.4,0.2-2c0.2-0.6,0.4-1.1,0.8-1.5c0.4-0.4,0.9-0.7,1.5-0.9c0.6-0.2,1.3-0.3,2.2-0.3c1,0,1.7,0.1,2.3,0.4
			c0.6,0.2,1,0.6,1.3,1.1s0.5,1.1,0.6,1.8c0.1,0.7,0.1,1.5,0.1,2.5v0.6l-5.2,0.4c-0.6,0-1.2,0.1-1.8,0.2s-1.2,0.3-1.9,0.5
			c-0.6,0.2-1.2,0.5-1.8,0.8c-0.6,0.3-1.1,0.7-1.5,1.2c-0.4,0.5-0.8,1-1,1.7c-0.3,0.6-0.4,1.4-0.4,2.3c0,0.8,0.1,1.5,0.4,2.2
			c0.3,0.7,0.7,1.3,1.2,1.9c0.6,0.5,1.3,1,2.1,1.3c0.9,0.3,1.9,0.5,3.1,0.5c0.9,0,1.7-0.1,2.5-0.3c0.8-0.2,1.5-0.5,2.1-0.8
			c0.6-0.3,1.2-0.7,1.6-1.1c0.5-0.4,0.8-0.8,1.1-1.1v0.4c0,0.3,0,0.7,0.1,1c0.1,0.3,0.2,0.7,0.5,0.9c0.2,0.3,0.6,0.5,1,0.7
			S444.1-725.1,444.7-725.1z M435-728c-1.3,0-2.3-0.3-2.9-0.8c-0.7-0.6-1-1.3-1-2.3c0-1.2,0.5-2.2,1.4-2.8c0.9-0.6,2.2-1,3.9-1.2
			l4.5-0.5v5.4c-0.8,0.7-1.7,1.2-2.6,1.6S436.3-728,435-728z M456.1-725.6v-16.5c0.2-0.3,0.5-0.5,0.9-0.8c0.3-0.3,0.7-0.5,1.2-0.7
			s0.9-0.4,1.5-0.5c0.6-0.1,1.2-0.2,1.8-0.2c1,0,1.7,0.1,2.3,0.4c0.6,0.3,1.1,0.7,1.4,1.2c0.3,0.5,0.6,1.2,0.7,2
			c0.1,0.8,0.2,1.7,0.2,2.7v12.3h3.7v-13.2c0-1.8-0.2-3.3-0.6-4.4c-0.4-1.1-1-2-1.7-2.7c-0.7-0.6-1.5-1.1-2.3-1.3
			c-0.9-0.2-1.8-0.3-2.7-0.3c-0.9,0-1.8,0.1-2.5,0.3c-0.7,0.2-1.4,0.4-2,0.7c-0.6,0.3-1.1,0.6-1.5,1c-0.4,0.4-0.8,0.8-1.1,1.3v-2.8
			h-3.1v21.4H456.1z M477.6-715.3c1.1,0,2-0.2,2.8-0.5c0.8-0.3,1.5-0.8,2-1.4c0.6-0.6,1.1-1.3,1.5-2.1c0.4-0.8,0.8-1.7,1.1-2.7
			l9.1-24.9h-3.8l-5.9,17.4l-6-17.4h-4l7.9,21.9l-1.1,2.9c-0.3,0.7-0.5,1.3-0.8,1.8c-0.3,0.5-0.6,0.8-0.9,1.1s-0.6,0.5-1,0.6
			c-0.4,0.1-0.8,0.2-1.2,0.2c-0.4,0-0.9,0-1.3-0.1c-0.4-0.1-0.8-0.2-1-0.3v3.1c0.2,0.1,0.5,0.2,0.9,0.3
			C476.4-715.4,477-715.3,477.6-715.3z"/>
	</g>
</g>
</svg>
